<svg width="47" height="40" viewBox="0 0 47 40" fill="none" xmlns="http://www.w3.org/2000/svg">
<path d="M1 38.4043H45.3688" stroke="white" stroke-width="2" stroke-linecap="round" stroke-linejoin="round"/>
<path d="M5.55066 38.4041L11.239 25.2026" stroke="white" stroke-width="2" stroke-linecap="round" stroke-linejoin="round"/>
<path d="M40.8182 38.4041L35.1299 25.2026" stroke="white" stroke-width="2" stroke-linecap="round" stroke-linejoin="round"/>
<path d="M23.1844 1C15.5621 1 10.1013 6.61064 10.1013 13.6514C10.1013 23.2225 19.4301 27.293 23.1844 35.1039C26.9387 27.293 36.2675 23.2225 36.2675 13.6514C36.2675 6.61064 30.8068 1 23.1844 1Z" stroke="white" stroke-width="2" stroke-linecap="round" stroke-linejoin="round"/>
<path d="M23.1844 17.8317C25.572 17.8317 27.5075 15.96 27.5075 13.6512C27.5075 11.3424 25.572 9.4707 23.1844 9.4707C20.7968 9.4707 18.8613 11.3424 18.8613 13.6512C18.8613 15.96 20.7968 17.8317 23.1844 17.8317Z" stroke="white" stroke-width="2" stroke-linecap="round" stroke-linejoin="round"/>
</svg>
