<svg width="45" height="46" viewBox="0 0 45 46" fill="none" xmlns="http://www.w3.org/2000/svg">
<path fill-rule="evenodd" clip-rule="evenodd" d="M17.219 0.924552C11.756 3.74903 9.27369 9.21306 10.5216 15.6672C11.3637 20.0228 13.4817 22.7744 17.3185 24.4973L20.5539 25.9497L23.4216 25.6792C27.5219 25.2927 31.4307 22.7646 33.2302 19.3348L34.6661 16.5982V12.7261C34.6661 7.13232 32.483 3.35333 27.9294 1.06296C25.2328 -0.29357 19.7124 -0.364785 17.219 0.924552ZM9.73864 34.4559C6.21749 35.8578 4.25635 37.0472 1.84723 39.2394C-0.339369 41.2294 -0.586488 43.0976 1.11524 44.7666L2.28642 45.9152H22.4893H42.6922L43.8633 44.7666C45.6699 42.9948 45.3314 41.1427 42.7876 38.8891C40.5255 36.8847 35.5345 34.2767 32.5591 33.5445C31.4793 33.2786 30.0147 33.5462 28.0776 34.3635C24.4768 35.8825 20.3478 35.9026 17.0088 34.4163C13.9075 33.0362 13.2961 33.0397 9.73864 34.4559Z" fill="#4E4A46"/>
</svg>
