<svg width="45" height="46" viewBox="0 0 45 46" fill="none" xmlns="http://www.w3.org/2000/svg">
<path fill-rule="evenodd" clip-rule="evenodd" d="M19.6755 0.695527C19.0528 1.13792 17.4074 1.4443 15.6016 1.45391C13.5369 1.46503 12.3523 1.71985 11.8792 2.25526L11.1859 3.03994L12.1101 5.79438L13.0342 8.54831H22.5965H32.1593L33.1028 5.73623L34.0464 2.92365L33.4043 2.19712C32.9893 1.72693 31.6911 1.46351 29.7335 1.45239C28.0671 1.44228 26.0988 1.1091 25.3587 0.711706C23.6035 -0.230709 20.9899 -0.238293 19.6755 0.695527ZM10.7629 14.489C-0.198307 25.2554 -3.2614 38.0049 3.7771 43.5678C6.65289 45.841 8.38278 46.0396 23.7914 45.8683L38.102 45.709L40.2474 44.3115C41.4272 43.5431 42.9789 41.9505 43.6964 40.7724L45 38.6308L44.9882 35.0917C44.9672 28.7091 41.1893 21.2542 34.6761 14.7418L32.0215 12.0874H22.6148H13.2081L10.7629 14.489ZM14.4632 19.4574C14.2921 19.6176 15.4627 21.8807 17.0645 24.4865C18.6658 27.0917 19.9764 29.3345 19.9764 29.47C19.9764 29.605 19.3122 29.788 18.5011 29.876C17.6108 29.9721 16.9542 30.3872 16.8465 30.9206L16.6678 31.8053H18.5915C21.1185 31.8053 21.2719 33.1891 18.7696 33.4166C17.6205 33.5208 16.9639 33.8767 16.8465 34.4597L16.6678 35.3445H18.5915H20.5146V36.1028C20.5146 36.6327 21.083 36.8612 22.3984 36.8612C23.7139 36.8612 24.2822 36.6327 24.2822 36.1028C24.2822 35.573 24.8506 35.3445 26.1661 35.3445H28.0499V34.3333V33.3221H26.1661C24.8506 33.3221 24.2822 33.0936 24.2822 32.5637C24.2822 32.0339 24.8506 31.8053 26.1661 31.8053H28.0499V30.826V29.8472L26.5052 29.6884L24.961 29.5302L27.8427 24.7271C29.4278 22.0854 30.7282 19.7395 30.7325 19.5145C30.7373 19.289 29.8449 19.1753 28.7501 19.2617L26.7592 19.4184L24.8479 22.8236C23.7968 24.6963 22.758 26.2317 22.54 26.2363C22.3215 26.2403 21.2891 24.6513 20.2455 22.7048L18.3482 19.1656H16.5607C15.5779 19.1656 14.6338 19.2971 14.4632 19.4574Z" fill="#4E4A46"/>
</svg>
