<svg width="45" height="45" viewBox="0 0 45 45" fill="none" xmlns="http://www.w3.org/2000/svg">
<path fill-rule="evenodd" clip-rule="evenodd" d="M20.4739 1.14626C18.8249 1.88125 17.4433 2.90175 16.6226 3.9915L15.3426 5.69092L15.3252 7.86914L15.3078 10.0478H16.5051H17.7025L18.1421 8.77323C19.1556 5.83367 19.618 5.09485 20.9768 4.24472C21.7641 3.75231 23.313 3.26755 24.419 3.16771C28.0429 2.84057 30.4971 4.69464 31.8376 8.77323L32.2564 10.0478H33.4538H34.6511L34.8151 8.78088C35.0636 6.85927 34.123 4.65088 32.3952 3.09804C30.3032 1.21806 28.4966 0.457993 25.5293 0.208603L23.0451 0L20.4739 1.14626ZM10.5778 13.7653C10.1034 14.0784 9.03231 16.7129 7.96697 20.1857L6.16079 26.0746L7.00851 26.6192C8.15364 27.3546 11.2089 27.7285 18.6929 28.048C29.0575 28.4907 41.1456 27.7787 42.9504 26.6192L43.7981 26.0746L41.9919 20.1857C40.9266 16.7129 39.8554 14.0784 39.3811 13.7653L38.5768 13.2342H24.9794H11.382L10.5778 13.7653ZM6.22124 30.3613C5.63416 31.706 4.77194 37.3706 5.0558 38.0202L5.36384 38.7254H7.5037C8.95929 38.7254 9.73205 38.9289 9.92162 39.3627C10.0744 39.7132 10.7572 40 11.4391 40C12.121 40 12.8038 39.7132 12.9566 39.3627L13.2351 38.7254H24.2541H35.273L35.5516 39.3627C35.9065 40.1759 37.6247 40.1912 38.1378 39.3857C38.4008 38.9723 39.5542 38.7288 41.6631 38.6422L44.7967 38.513L44.9751 37.6901C45.1729 36.7796 44.14 30.9999 43.6574 30.3133C43.4596 30.0321 42.5867 30.0087 41.1776 30.2471C39.9817 30.4497 36.6096 30.748 33.684 30.9103L28.3645 31.2051L27.2112 31.9915C25.7184 33.009 24.2052 32.9878 22.6713 31.9278L21.442 31.0781H18.8457C16.2193 31.0781 8.71653 30.3711 7.26481 29.987C6.83103 29.8723 6.36147 30.0406 6.22124 30.3613Z" fill="#4E4A46"/>
</svg>
