<svg width="41" height="41" viewBox="0 0 41 41" fill="none" xmlns="http://www.w3.org/2000/svg">
<path d="M29.1136 0.75H11.3864C5.51206 0.75 0.75 5.51969 0.75 11.4034V29.1591C0.75 35.0428 5.51206 39.8125 11.3864 39.8125H29.1136C34.9879 39.8125 39.75 35.0428 39.75 29.1591V11.4034C39.75 5.51969 34.9879 0.75 29.1136 0.75Z" stroke="white" stroke-width="1.5" stroke-linecap="round" stroke-linejoin="round"/>
<path d="M20.25 29.7509C25.4716 29.7509 29.7045 25.5112 29.7045 20.2812C29.7045 15.0513 25.4716 10.8115 20.25 10.8115C15.0284 10.8115 10.7954 15.0513 10.7954 20.2812C10.7954 25.5112 15.0284 29.7509 20.25 29.7509Z" stroke="white" stroke-width="1.5" stroke-linecap="round" stroke-linejoin="round"/>
<path d="M32.0682 10.5748C33.2431 10.5748 34.1955 9.6209 34.1955 8.44416C34.1955 7.26742 33.2431 6.31348 32.0682 6.31348C30.8933 6.31348 29.9409 7.26742 29.9409 8.44416C29.9409 9.6209 30.8933 10.5748 32.0682 10.5748Z" fill="white"/>
</svg>
