<svg width="41" height="39" viewBox="0 0 41 39" fill="none" xmlns="http://www.w3.org/2000/svg">
<path d="M34.75 0.75H5.75C2.98858 0.75 0.75 2.86107 0.75 5.4652V32.8134C0.75 35.4175 2.98858 37.5286 5.75 37.5286H34.75C37.5114 37.5286 39.75 35.4175 39.75 32.8134V5.4652C39.75 2.86107 37.5114 0.75 34.75 0.75Z" stroke="white" stroke-width="1.5"/>
<path d="M20.25 7.35107C12.25 7.35107 6.75 12.0663 6.75 18.196C6.75 23.5714 11.25 27.6264 17.75 28.2866L16.55 32.8131L22.25 28.3809C29.45 28.0979 33.75 23.76 33.75 18.196C33.75 12.0663 28.25 7.35107 20.25 7.35107Z" stroke="white" stroke-width="1.5" stroke-linecap="round" stroke-linejoin="round"/>
<path d="M11.418 21.0093V14.9248H12.2231V20.2913H15.2197V21.0093H11.418ZM16.3196 21.0093V14.9248H17.1248V21.0093H16.3196ZM18.54 21.0093V14.9248H19.366L22.5618 19.7019V14.9248H23.3337V21.0093H22.5078L19.312 16.228V21.0093H18.54ZM24.7075 21.0093V14.9248H29.1069V15.6428H25.5127V17.5063H28.8787V18.2202H25.5127V20.2913H29.248V21.0093H24.7075Z" fill="white"/>
</svg>
