<svg width="134" height="47" viewBox="0 0 134 47" fill="none" xmlns="http://www.w3.org/2000/svg">
<path d="M11.5797 31.5058C9.52112 31.5058 7.71983 31.0799 6.17586 30.228C4.6319 29.3762 3.42512 28.1783 2.55553 26.6343C1.70369 25.0726 1.27776 23.2269 1.27776 21.0973C1.27776 18.9855 1.71256 17.1664 2.58215 15.6402C3.46949 14.0962 4.69401 12.9072 6.25572 12.0731C7.83518 11.2213 9.65422 10.7953 11.7128 10.7953C12.8841 10.7953 13.9312 10.9196 14.854 11.168C15.7946 11.4165 16.6731 11.7803 17.4894 12.2594L17.4362 16.918H15.9454L14.5878 11.6206L16.5045 12.3393V13.4041C15.7591 12.8185 15.0581 12.4014 14.4015 12.153C13.7626 11.9045 13.0261 11.7803 12.192 11.7803C10.8787 11.7803 9.69859 12.1263 8.65153 12.8185C7.60447 13.5106 6.77038 14.5577 6.14924 15.9596C5.54585 17.3439 5.24416 19.0742 5.24416 21.1506C5.24416 23.085 5.53698 24.7532 6.12262 26.1551C6.70826 27.5571 7.50687 28.6397 8.51843 29.4028C9.54774 30.1482 10.7013 30.5208 11.979 30.5208C12.6534 30.5208 13.2834 30.4499 13.8691 30.3079C14.4725 30.1659 15.0758 29.9707 15.6792 29.7222L14.3749 30.5208V28.338C14.3749 27.149 14.366 25.9954 14.3482 24.8774C14.3305 23.7416 14.3039 22.5792 14.2684 21.3901H18.0484C18.0307 22.5082 18.0041 23.6351 17.9686 24.7709C17.9508 25.9067 17.9419 27.1223 17.9419 28.4179V29.7489C16.9126 30.3522 15.9011 30.7959 14.9073 31.0799C13.9134 31.3638 12.8043 31.5058 11.5797 31.5058ZM11.3668 22.2686V21.3901H19.7787V22.2686L16.5843 22.6679H15.0936L11.3668 22.2686ZM30.8947 31.5058C29.6702 31.5058 28.4989 31.2839 27.3809 30.8403C26.2806 30.3789 25.3045 29.7134 24.4526 28.8438C23.6008 27.9742 22.9264 26.9005 22.4295 25.6227C21.9504 24.3272 21.7108 22.8365 21.7108 21.1506C21.7108 19.4646 21.9504 17.9828 22.4295 16.705C22.9264 15.4095 23.6008 14.3269 24.4526 13.4574C25.3045 12.57 26.2806 11.9045 27.3809 11.4608C28.4989 11.0172 29.6702 10.7953 30.8947 10.7953C32.137 10.7953 33.2994 11.0172 34.3819 11.4608C35.4822 11.9045 36.4583 12.57 37.3101 13.4574C38.1797 14.3269 38.8541 15.4095 39.3333 16.705C39.8302 17.9828 40.0786 19.4646 40.0786 21.1506C40.0786 22.8188 39.8302 24.3006 39.3333 25.5961C38.8541 26.8739 38.1797 27.9564 37.3101 28.8438C36.4583 29.7134 35.4822 30.3789 34.3819 30.8403C33.2994 31.2839 32.137 31.5058 30.8947 31.5058ZM30.8947 30.5208C31.782 30.5208 32.5451 30.2813 33.184 29.8021C33.8407 29.3229 34.3819 28.6663 34.8079 27.8322C35.2338 26.9804 35.5532 25.9865 35.7662 24.8508C35.9791 23.6972 36.0856 22.4638 36.0856 21.1506C36.0856 19.8196 35.9791 18.5862 35.7662 17.4504C35.5532 16.3146 35.2338 15.3208 34.8079 14.4689C34.3819 13.6171 33.8407 12.9604 33.184 12.499C32.5451 12.0199 31.782 11.7803 30.8947 11.7803C30.0074 11.7803 29.2354 12.0199 28.5788 12.499C27.9221 12.9604 27.3809 13.6171 26.9549 14.4689C26.529 15.3208 26.2096 16.3146 25.9966 17.4504C25.7836 18.5862 25.6772 19.8196 25.6772 21.1506C25.6772 22.4638 25.7836 23.6972 25.9966 24.8508C26.2096 25.9865 26.529 26.9804 26.9549 27.8322C27.3809 28.6663 27.9221 29.3229 28.5788 29.8021C29.2354 30.2813 30.0074 30.5208 30.8947 30.5208ZM44.6442 31C44.6797 29.4915 44.6974 27.9742 44.6974 26.448C44.6974 24.904 44.6974 23.3512 44.6974 21.7894V20.5117C44.6974 18.9677 44.6974 17.4326 44.6974 15.9064C44.6974 14.3624 44.6797 12.8185 44.6442 11.2745H48.4242C48.3888 12.783 48.3621 14.3181 48.3444 15.8798C48.3444 17.4237 48.3444 18.9677 48.3444 20.5117V22.6413C48.3444 23.8303 48.3444 25.1347 48.3444 26.5544C48.3621 27.9742 48.3888 29.456 48.4242 31H44.6442ZM42.1419 31V30.1215L46.2148 29.7489H46.9335L50.687 30.1215V31H42.1419ZM42.1419 12.153V11.2745H50.8999V12.153L46.9335 12.5257H46.2148L42.1419 12.153ZM53.2691 31V30.1215L57.0758 29.7489H57.6614L61.335 30.1215V31H53.2691ZM53.5619 12.153V11.2745H60.4033V12.153L57.4485 12.5257L56.7031 12.5523L53.5619 12.153ZM46.4277 25.9422L46.3745 24.2119H46.8537L47.4659 23.4133L57.3154 11.2745H58.6996L46.4277 25.9422ZM55.9045 31L50.4208 20.6182L52.7899 17.8231L60.004 31H55.9045ZM61.983 31V30.1215L64.645 29.7755H65.1242L68.0258 30.1215V31H61.983ZM63.8464 31L70.4482 11.168H72.7908L79.5257 31H75.6924L70.0755 13.5372H70.6079L70.5281 13.9099L65.1508 31H63.8464ZM66.7746 24.5846L66.9876 23.6795H75.4262L75.6125 24.5846H66.7746ZM72.6044 31V30.1215L76.1982 29.7489H77.5292L81.2294 30.1215V31H72.6044ZM82.4836 31V30.1215L85.3054 29.7489H86.0241L89.6711 30.1215V31H82.4836ZM85.0658 31V12.0199H86.0773L86.3435 24.0522V31H85.0658ZM95.0217 12.153V11.2745H102.236V12.153L99.4406 12.5257H98.7219L95.0217 12.153ZM97.6837 31.1065L85.7845 13.8034L85.7047 13.7236L84.7996 12.3659L82.5901 12.153V11.2745H88.4998L99.0946 26.7408L98.5888 26.9271L98.5089 19.021V11.2745H99.6003V31.1065H97.6837Z" fill="#4E4A46"/>
<path d="M26.3355 35.9747H34.7674L35.5943 34.9032C35.5943 34.9032 35.6447 34.942 35.7457 35.0197C35.8466 35.0973 35.9747 35.1983 36.13 35.3225C36.2853 35.4467 36.4444 35.5787 36.6075 35.7185C36.7783 35.8582 36.9336 35.9941 37.0733 36.1261C37.0423 36.2503 36.9297 36.3124 36.7356 36.3124H26.4403L26.3355 35.9747ZM30.9008 33.2378L32.7875 33.4009C32.7797 33.4785 32.7448 33.5484 32.6827 33.6105C32.6283 33.6648 32.5196 33.7037 32.3566 33.7269V39.2939H30.9008V33.2378ZM27.7796 39.0842V38.4903L29.3053 39.0842H35.0352V39.422H29.2121V43.6729C29.2121 43.7195 29.15 43.7816 29.0257 43.8592C28.9093 43.9369 28.7579 44.0029 28.5715 44.0572C28.3852 44.1116 28.1911 44.1387 27.9892 44.1387H27.7796V39.0842ZM34.1152 39.0842H33.9871L34.6626 38.3272L36.095 39.422C36.0562 39.4763 35.9902 39.5268 35.8971 39.5734C35.8039 39.62 35.6913 39.6588 35.5593 39.6899V43.7195C35.5593 43.7428 35.4894 43.7816 35.3497 43.8359C35.2099 43.8903 35.0469 43.9407 34.8605 43.9873C34.682 44.0339 34.5111 44.0572 34.3481 44.0572H34.1152V39.0842ZM28.292 42.7412H34.9537V43.0789H28.292V42.7412ZM40.0082 38.8513H46.4602L47.2522 37.873C47.2522 37.873 47.2988 37.908 47.3919 37.9778C47.4851 38.0477 47.6055 38.1448 47.753 38.269C47.9005 38.3855 48.0558 38.5097 48.2188 38.6417C48.3819 38.7659 48.5333 38.8863 48.673 39.0027C48.642 39.1269 48.5294 39.1891 48.3353 39.1891H40.0082V38.8513ZM39.3094 34.053V33.4707L40.8351 34.053H40.6837V42.5199C40.6837 42.551 40.6371 42.6014 40.5439 42.6713C40.4585 42.7412 40.3304 42.8033 40.1596 42.8576C39.9966 42.912 39.7986 42.9392 39.5656 42.9392H39.3094V34.053ZM40.0315 34.053H46.6466V34.3791H40.0315V34.053ZM40.0315 36.5337H46.6116V36.8714H40.0315V36.5337ZM46.1691 34.053H46.0526L46.6932 33.3543L48.0208 34.3675C47.9898 34.4141 47.9354 34.4607 47.8578 34.5072C47.7802 34.5461 47.6792 34.5771 47.555 34.6004V37.151C47.555 37.182 47.489 37.2286 47.357 37.2907C47.2328 37.3451 47.0814 37.3994 46.9028 37.4538C46.732 37.5003 46.5689 37.5236 46.4137 37.5236H46.1691V34.053ZM37.9002 42.5781C38.2496 42.5315 38.7271 42.4578 39.3327 42.3569C39.9461 42.2482 40.641 42.12 41.4174 41.9725C42.2016 41.825 43.0091 41.6697 43.8398 41.5067L43.8631 41.6464C43.374 41.9182 42.749 42.2326 41.9881 42.5898C41.2272 42.9469 40.2799 43.3584 39.1464 43.8243C39.0843 43.9796 38.9833 44.0805 38.8436 44.1271L37.9002 42.5781ZM42.9198 36.6618H44.294C44.2863 37.2597 44.3329 37.8459 44.4338 38.4204C44.5425 38.995 44.7133 39.5346 44.9462 40.0392C45.1869 40.5439 45.5014 40.9904 45.8896 41.3786C46.2778 41.7668 46.7514 42.0812 47.3104 42.3219C47.4191 42.3685 47.5084 42.384 47.5783 42.3685C47.6482 42.353 47.7103 42.3025 47.7646 42.2171C47.8423 42.1006 47.9393 41.9298 48.0558 41.7047C48.1723 41.4717 48.2771 41.2466 48.3702 41.0292L48.4983 41.0525L48.312 42.5898C48.5216 42.7994 48.6497 42.9819 48.6963 43.1372C48.7507 43.3002 48.7274 43.4594 48.6265 43.6147C48.51 43.7932 48.3431 43.898 48.1257 43.9291C47.9083 43.9602 47.6715 43.9407 47.4152 43.8709C47.159 43.8088 46.9183 43.7272 46.6932 43.6263C45.9866 43.2847 45.3927 42.8654 44.9113 42.3685C44.4377 41.8716 44.0572 41.3203 43.77 40.7147C43.4904 40.1014 43.2847 39.453 43.1527 38.7698C43.0207 38.0865 42.9431 37.3839 42.9198 36.6618ZM51.2585 36.4871H56.8254L57.5475 35.5904C57.5475 35.5904 57.5902 35.6253 57.6756 35.6952C57.761 35.7573 57.8697 35.8427 58.0017 35.9514C58.1415 36.0601 58.2851 36.1766 58.4326 36.3008C58.5802 36.4172 58.716 36.5298 58.8403 36.6385C58.8325 36.7006 58.7976 36.7472 58.7354 36.7783C58.6733 36.8093 58.5996 36.8249 58.5142 36.8249H51.3517L51.2585 36.4871ZM53.9022 36.4871H55.6259V36.6735C55.2066 37.0694 54.6981 37.4344 54.1002 37.7682C53.5101 38.1021 52.8579 38.3971 52.1436 38.6533C51.4371 38.9018 50.7073 39.1114 49.9541 39.2822L49.8843 39.1308C50.42 38.9134 50.9363 38.6572 51.4332 38.3622C51.9379 38.0671 52.3999 37.7604 52.8191 37.4421C53.2384 37.116 53.5994 36.7977 53.9022 36.4871ZM53.646 37.6168L53.7508 37.5236C54.2788 37.8575 54.7097 38.2496 55.0436 38.6999C55.3852 39.1425 55.6414 39.6083 55.8122 40.0975C55.9908 40.5789 56.0956 41.0525 56.1267 41.5183C56.1655 41.9764 56.1422 42.3918 56.0568 42.7645C55.9791 43.1372 55.8549 43.4322 55.6841 43.6496C55.5288 43.8359 55.3075 43.9679 55.0203 44.0456C54.733 44.1232 54.3836 44.162 53.9721 44.162C53.9643 43.7738 53.8712 43.4865 53.6926 43.3002C53.615 43.2226 53.4907 43.1488 53.3199 43.0789C53.1491 43.0013 52.9433 42.9353 52.7027 42.8809V42.7412C52.8657 42.7489 53.0482 42.7606 53.25 42.7761C53.4519 42.7916 53.6421 42.8033 53.8207 42.8111C54.007 42.8188 54.1468 42.8227 54.24 42.8227C54.3254 42.8227 54.3953 42.8188 54.4496 42.8111C54.504 42.7955 54.5467 42.7606 54.5777 42.7062C54.6786 42.5587 54.7524 42.3452 54.799 42.0657C54.8456 41.7784 54.8611 41.4484 54.8456 41.0758C54.83 40.7031 54.7796 40.3149 54.6942 39.9111C54.6088 39.4996 54.4807 39.0998 54.3098 38.7116C54.139 38.3156 53.9178 37.9507 53.646 37.6168ZM54.1352 37.9429L54.9737 39.1192C54.5699 39.3987 54.0847 39.6743 53.5179 39.9461C52.9589 40.2101 52.361 40.4585 51.7244 40.6914C51.0955 40.9166 50.4743 41.1029 49.861 41.2505L49.7911 41.0991C50.3346 40.8661 50.882 40.575 51.4332 40.2256C51.9845 39.8762 52.4969 39.5035 52.9705 39.1075C53.4519 38.7116 53.8401 38.3234 54.1352 37.9429ZM54.8922 39.4103L55.7423 40.6681C55.2687 41.0408 54.6942 41.398 54.0187 41.7396C53.351 42.0812 52.6289 42.3801 51.8525 42.6364C51.0761 42.8926 50.288 43.0906 49.4883 43.2303L49.4184 43.0673C50.1405 42.8344 50.8509 42.5277 51.5497 42.1472C52.2485 41.759 52.889 41.332 53.4713 40.8661C54.0614 40.3925 54.535 39.9072 54.8922 39.4103ZM55.6958 36.5104C55.8588 37.2402 56.0956 37.8963 56.4062 38.4786C56.7167 39.061 57.0778 39.5773 57.4893 40.0276C57.9086 40.4779 58.3666 40.8739 58.8635 41.2155C59.3682 41.5494 59.8923 41.8367 60.4358 42.0773L60.4009 42.2055C59.7953 42.2753 59.3605 42.6402 59.0965 43.3002C58.4598 42.8344 57.9008 42.2986 57.4194 41.693C56.938 41.0796 56.5421 40.3576 56.2315 39.5268C55.9209 38.6883 55.688 37.7061 55.5327 36.5803L55.6958 36.5104ZM58.4792 37.116L60.0049 38.1642C59.9738 38.2185 59.9234 38.2574 59.8535 38.2806C59.7914 38.3039 59.6943 38.3001 59.5623 38.269C59.3139 38.4243 59.0266 38.5912 58.7005 38.7698C58.3744 38.9484 58.0289 39.1192 57.664 39.2822C57.2991 39.4453 56.938 39.5928 56.5809 39.7248L56.4761 39.5967C56.7245 39.356 56.9768 39.0881 57.2331 38.7931C57.4893 38.4903 57.7261 38.1914 57.9435 37.8963C58.1687 37.6013 58.3472 37.3412 58.4792 37.116ZM50.979 34.7868H59.2129V35.1245H50.979V34.7868ZM54.2167 33.2262L56.0451 33.3659C56.0374 33.4436 56.0024 33.5134 55.9403 33.5755C55.886 33.6299 55.7812 33.6687 55.6259 33.692V34.9964H54.2167V33.2262ZM50.9557 33.9599H51.1188C51.3129 34.4413 51.4099 34.8722 51.4099 35.2526C51.4177 35.6331 51.3595 35.9553 51.2352 36.2193C51.111 36.4832 50.948 36.6735 50.7461 36.7899C50.6219 36.8753 50.4821 36.9219 50.3268 36.9297C50.1715 36.9374 50.0279 36.9064 49.8959 36.8365C49.7717 36.7666 49.6824 36.6579 49.628 36.5104C49.5504 36.3008 49.562 36.1144 49.663 35.9514C49.7717 35.7883 49.9192 35.6602 50.1055 35.5671C50.2453 35.4817 50.3812 35.3574 50.5132 35.1944C50.6529 35.0313 50.7655 34.845 50.8509 34.6354C50.9363 34.418 50.9712 34.1928 50.9557 33.9599ZM58.584 34.7868H58.4559L59.1431 34.0996L60.3543 35.241C60.3077 35.2876 60.2495 35.3186 60.1796 35.3341C60.1175 35.3497 60.0243 35.3652 59.9001 35.3807C59.6749 35.5593 59.3876 35.7495 59.0382 35.9514C58.6889 36.1533 58.3705 36.3202 58.0832 36.4522L57.9668 36.3707C58.0444 36.2231 58.1221 36.0562 58.1997 35.8699C58.2774 35.6758 58.3511 35.4855 58.421 35.2992C58.4909 35.1051 58.5452 34.9343 58.584 34.7868ZM65.8863 33.2262L67.6332 33.3659C67.6254 33.4436 67.5944 33.5096 67.54 33.5639C67.4935 33.6105 67.4003 33.6454 67.2605 33.6687V34.8683H65.8863V33.2262ZM61.7984 34.6237H69.4267L70.1721 33.692C70.1721 33.692 70.2187 33.7269 70.3119 33.7968C70.405 33.8667 70.5215 33.956 70.6612 34.0647C70.8088 34.1734 70.9602 34.2899 71.1154 34.4141C71.2785 34.5383 71.426 34.6587 71.558 34.7751C71.5425 34.8372 71.5037 34.8838 71.4415 34.9149C71.3872 34.9382 71.3173 34.9498 71.2319 34.9498H61.9032L61.7984 34.6237ZM64.349 41.1223H69.1356L69.8111 40.2838C69.8111 40.2838 69.8809 40.3382 70.0207 40.4469C70.1682 40.5478 70.339 40.6759 70.5331 40.8312C70.7272 40.9865 70.9019 41.1301 71.0572 41.2621C71.0262 41.3863 70.9175 41.4484 70.7311 41.4484H64.4421L64.349 41.1223ZM62.9863 43.3934H69.9042L70.6729 42.45C70.6729 42.45 70.7195 42.485 70.8126 42.5548C70.9136 42.6247 71.0339 42.714 71.1737 42.8227C71.3212 42.9314 71.4765 43.0479 71.6395 43.1721C71.8026 43.3041 71.9462 43.4244 72.0704 43.5331C72.0394 43.6574 71.9307 43.7195 71.7443 43.7195H63.0912L62.9863 43.3934ZM64.3257 34.9615C64.807 35.0469 65.1758 35.1711 65.4321 35.3341C65.696 35.4894 65.8669 35.6564 65.9445 35.8349C66.0299 36.0135 66.0493 36.1843 66.0027 36.3474C65.9561 36.5026 65.863 36.6308 65.7232 36.7317C65.5835 36.8249 65.4204 36.8637 65.2341 36.8482C65.0477 36.8326 64.8653 36.7433 64.6867 36.5803C64.6867 36.3008 64.6362 36.0213 64.5353 35.7418C64.4421 35.4545 64.3412 35.2099 64.2325 35.008L64.3257 34.9615ZM68.0408 34.9382L69.7761 35.3341C69.7528 35.4118 69.7062 35.4739 69.6364 35.5205C69.5665 35.5593 69.4694 35.5787 69.3452 35.5787C69.1433 35.7883 68.8871 36.0252 68.5766 36.2891C68.2738 36.5454 67.9787 36.7783 67.6914 36.9879H67.5284C67.6293 36.7006 67.7264 36.3629 67.8195 35.9747C67.9127 35.5865 67.9865 35.241 68.0408 34.9382ZM62.9165 36.8947H69.8693L70.638 35.9514C70.638 35.9514 70.6845 35.9863 70.7777 36.0562C70.8786 36.1261 70.999 36.2193 71.1387 36.3357C71.2863 36.4444 71.4377 36.5609 71.5929 36.6851C71.756 36.8093 71.9035 36.9297 72.0355 37.0461C72.0277 37.1083 71.9928 37.1548 71.9307 37.1859C71.8686 37.2092 71.7948 37.2208 71.7094 37.2208H62.9165V36.8947ZM62.1711 36.8947V36.7783V36.3357L63.7317 36.8947H63.5104V38.3389C63.5104 38.7349 63.4871 39.1852 63.4405 39.6899C63.4017 40.1868 63.3008 40.6992 63.1377 41.2272C62.9825 41.7551 62.7456 42.2676 62.4273 42.7645C62.109 43.2614 61.6742 43.7078 61.1229 44.1038L61.0181 43.999C61.3753 43.4167 61.6315 42.7955 61.7868 42.1356C61.9498 41.4756 62.0546 40.8195 62.1012 40.1673C62.1478 39.5152 62.1711 38.9057 62.1711 38.3389V36.8947ZM64.9313 39.1192H69.1589L69.8693 38.2457C69.8693 38.2457 69.9392 38.3001 70.0789 38.4088C70.2264 38.5097 70.4011 38.6417 70.603 38.8047C70.8049 38.96 70.9873 39.1114 71.1504 39.2589C71.1193 39.3832 71.0145 39.4453 70.8359 39.4453H64.7566L64.9313 39.1192ZM64.6634 37.5702L66.3055 38.0244C66.2512 38.1875 66.1037 38.2729 65.863 38.2806C65.6068 38.8785 65.2923 39.4026 64.9196 39.8529C64.5547 40.2955 64.1471 40.6604 63.6968 40.9477L63.5454 40.8428C63.8016 40.4313 64.0267 39.9383 64.2208 39.3638C64.4227 38.7892 64.5702 38.1914 64.6634 37.5702ZM66.7132 37.5236L68.4368 37.6867C68.429 37.7643 68.398 37.8303 68.3436 37.8847C68.297 37.9313 68.2 37.9662 68.0525 37.9895V43.5564H66.7132V37.5236ZM74.1901 38.1292L74.6093 37.5586L75.8788 38.0361C75.8555 38.0904 75.8167 38.137 75.7623 38.1758C75.708 38.2147 75.6264 38.2418 75.5177 38.2574V43.6962C75.5177 43.735 75.4673 43.7893 75.3663 43.8592C75.2654 43.9369 75.1295 44.0029 74.9587 44.0572C74.7957 44.1193 74.621 44.1504 74.4346 44.1504H74.1901V38.1292ZM75.1567 35.4506L76.8338 36.359C76.8027 36.4134 76.7523 36.4561 76.6824 36.4871C76.6203 36.5182 76.5232 36.5259 76.3912 36.5104C76.1195 36.8676 75.7934 37.2519 75.4129 37.6634C75.0403 38.0671 74.6287 38.467 74.1784 38.863C73.7281 39.2512 73.2506 39.6006 72.7459 39.9111L72.6411 39.8063C72.9051 39.4957 73.1613 39.1541 73.4098 38.7814C73.6582 38.401 73.8911 38.0128 74.1085 37.6168C74.3337 37.2208 74.5356 36.8365 74.7142 36.4638C74.8927 36.0911 75.0403 35.7534 75.1567 35.4506ZM74.9587 33.2145L76.5193 34.1462C76.4883 34.2006 76.4378 34.2433 76.3679 34.2743C76.3058 34.3054 76.2049 34.3054 76.0651 34.2743C75.8244 34.5228 75.5333 34.779 75.1917 35.043C74.8578 35.2992 74.4929 35.5515 74.0969 35.8C73.7087 36.0407 73.3011 36.2581 72.874 36.4522L72.7809 36.3357C73.0681 36.0407 73.3515 35.7068 73.631 35.3341C73.9183 34.9615 74.1784 34.5888 74.4114 34.2161C74.6443 33.8434 74.8267 33.5096 74.9587 33.2145ZM80.9216 34.2394L82.4473 35.1711C82.4162 35.2254 82.3658 35.2681 82.2959 35.2992C82.2338 35.3225 82.1328 35.3225 81.9931 35.2992C81.698 35.5942 81.3487 35.9126 80.9449 36.2542C80.5412 36.5881 80.1064 36.918 79.6405 37.2441C79.1747 37.5625 78.6933 37.8497 78.1964 38.106L78.0799 37.9778C78.4526 37.6207 78.8175 37.217 79.1747 36.7666C79.5396 36.3163 79.8735 35.8699 80.1763 35.4273C80.4868 34.9847 80.7353 34.5888 80.9216 34.2394ZM78.3711 39.5734H81.0963V39.8995H78.1382L78.3711 39.5734ZM80.7702 39.5734H80.6421L81.4341 38.828L82.7268 39.9577C82.6802 40.0198 82.622 40.0625 82.5521 40.0858C82.49 40.1091 82.3852 40.1285 82.2377 40.1441C81.6709 41.1689 80.8518 42.0191 79.7803 42.6946C78.7088 43.3701 77.3889 43.8437 75.8206 44.1154L75.7623 43.964C77.0046 43.5292 78.0605 42.9392 78.9301 42.1938C79.7997 41.4407 80.4131 40.5672 80.7702 39.5734ZM78.4177 39.9577C78.6428 40.408 78.9418 40.7962 79.3144 41.1223C79.6949 41.4407 80.1258 41.7085 80.6072 41.9259C81.0963 42.1356 81.6165 42.3064 82.1678 42.4384C82.7268 42.5626 83.2975 42.6597 83.8798 42.7295V42.8693C83.6003 42.9392 83.3712 43.0828 83.1927 43.3002C83.0141 43.5254 82.8899 43.8049 82.82 44.1387C82.0824 43.9136 81.4147 43.6302 80.8168 43.2886C80.2267 42.9547 79.7182 42.5277 79.2911 42.0075C78.8641 41.4795 78.5264 40.8273 78.2779 40.0509L78.4177 39.9577ZM76.7057 34.7751C77.2492 34.8528 77.684 34.9731 78.0101 35.1361C78.3439 35.2914 78.5885 35.4661 78.7438 35.6602C78.9068 35.8543 78.9961 36.0446 79.0116 36.2309C79.0349 36.4095 79 36.5648 78.9068 36.6968C78.8214 36.821 78.6933 36.8986 78.5225 36.9297C78.3594 36.9607 78.177 36.9258 77.9751 36.8249C77.8819 36.5997 77.7538 36.3707 77.5908 36.1377C77.4277 35.897 77.2608 35.6641 77.09 35.439C76.9192 35.2138 76.7561 35.0158 76.6009 34.845L76.7057 34.7751ZM81.0963 36.3707C81.6709 36.5182 82.1251 36.7045 82.4589 36.9297C82.8006 37.1471 83.049 37.3722 83.2043 37.6052C83.3596 37.8381 83.4411 38.0594 83.4489 38.269C83.4566 38.4786 83.4062 38.6533 83.2975 38.7931C83.1965 38.9251 83.0607 39.0027 82.8899 39.026C82.719 39.0415 82.5366 38.9794 82.3425 38.8397C82.2726 38.5602 82.1639 38.2768 82.0164 37.9895C81.8689 37.7022 81.7019 37.4266 81.5156 37.1626C81.337 36.8909 81.1584 36.6502 80.9799 36.4405L81.0963 36.3707ZM76.2398 37.5935C76.6047 37.5935 77.1172 37.5896 77.7771 37.5819C78.4449 37.5741 79.2019 37.5586 80.0482 37.5353C80.9022 37.512 81.7796 37.4848 82.6802 37.4538L82.6919 37.6401C82.063 37.8032 81.2865 37.9817 80.3626 38.1758C79.4387 38.3699 78.3323 38.5873 77.0434 38.828C77.0046 38.9057 76.9502 38.9639 76.8804 39.0027C76.8183 39.0415 76.7523 39.0687 76.6824 39.0842L76.2398 37.5935ZM78.8835 33.2145L80.5955 33.9599C80.5645 34.022 80.5101 34.0725 80.4325 34.1113C80.3548 34.1501 80.2539 34.1656 80.1297 34.1579C79.8191 34.4762 79.4814 34.7674 79.1165 35.0313C78.7515 35.2953 78.3944 35.5166 78.045 35.6952L77.9052 35.5904C78.0683 35.3031 78.2352 34.9459 78.406 34.5189C78.5846 34.0841 78.7438 33.6493 78.8835 33.2145ZM78.4293 38.1758L80.153 38.6999C80.1374 38.7698 80.0909 38.828 80.0132 38.8746C79.9433 38.9212 79.8385 38.9406 79.6988 38.9328C79.2096 39.7714 78.639 40.4585 77.9868 40.9942C77.3423 41.53 76.6707 41.9531 75.972 42.2637L75.8438 42.1356C76.1777 41.8483 76.5077 41.5028 76.8338 41.0991C77.1599 40.6875 77.4588 40.2372 77.7305 39.7481C78.0101 39.2512 78.243 38.7271 78.4293 38.1758ZM86.3255 43.5098C86.9156 43.1216 87.4513 42.6868 87.9327 42.2055C88.4141 41.7163 88.8256 41.2194 89.1672 40.7147C89.5088 40.2101 89.7689 39.7403 89.9475 39.3055C90.1338 38.863 90.227 38.498 90.227 38.2108C90.227 38.0322 90.196 37.8847 90.1338 37.7682C90.0795 37.644 89.9941 37.5431 89.8776 37.4654L90.0989 37.1975C90.425 37.2597 90.7239 37.3606 90.9957 37.5003C91.2674 37.6323 91.4848 37.776 91.6479 37.9313C91.8109 38.0865 91.8924 38.2263 91.8924 38.3505C91.8924 38.4825 91.8381 38.599 91.7294 38.6999C91.6207 38.8009 91.5353 38.9173 91.4732 39.0493C91.1471 39.7558 90.7472 40.4003 90.2736 40.9826C89.8 41.5571 89.2448 42.0696 88.6082 42.5199C87.9793 42.9702 87.265 43.3623 86.4653 43.6962L86.3255 43.5098ZM84.9396 39.7481C85.2424 39.4763 85.5452 39.1658 85.848 38.8164C86.1508 38.4592 86.4381 38.0943 86.7098 37.7216C86.9816 37.3412 87.2184 36.9685 87.4203 36.6036C87.6299 36.2387 87.7929 35.9009 87.9094 35.5904C88.0259 35.2798 88.0841 35.0197 88.0841 34.8101C88.0841 34.6703 88.0453 34.5383 87.9676 34.4141C87.8978 34.2899 87.7696 34.1307 87.5833 33.9366L87.6648 33.7852C87.8978 33.8085 88.1113 33.8473 88.3054 33.9016C88.5072 33.9482 88.6858 34.0103 88.8411 34.088C88.9809 34.1579 89.1245 34.251 89.272 34.3675C89.4195 34.484 89.5438 34.6043 89.6447 34.7285C89.7456 34.8528 89.7961 34.9731 89.7961 35.0896C89.7961 35.2216 89.7418 35.3264 89.6331 35.404C89.5321 35.4817 89.4273 35.602 89.3186 35.765C88.977 36.3241 88.6004 36.8559 88.1889 37.3606C87.7774 37.8653 87.3193 38.335 86.8147 38.7698C86.31 39.1968 85.7354 39.585 85.091 39.9344L84.9396 39.7481ZM88.8644 37.8148C88.7635 37.8148 88.647 37.7682 88.515 37.675C88.383 37.5819 88.2549 37.4771 88.1307 37.3606C88.0142 37.2364 87.9172 37.1277 87.8395 37.0345L88.0725 36.6036C88.1889 36.6579 88.3287 36.7084 88.4917 36.755C88.6625 36.8016 88.8178 36.8249 88.9576 36.8249C89.0663 36.8249 89.2293 36.8132 89.4467 36.7899C89.6641 36.7589 89.9087 36.7239 90.1804 36.6851C90.4522 36.6463 90.7239 36.6075 90.9957 36.5686C91.2752 36.5221 91.5275 36.4794 91.7527 36.4405C91.9778 36.4017 92.1525 36.3745 92.2768 36.359C92.4631 36.3202 92.6106 36.2775 92.7193 36.2309C92.8358 36.1766 92.929 36.13 92.9988 36.0911C93.0765 36.0446 93.1541 36.0213 93.2318 36.0213C93.4181 36.0213 93.6122 36.0562 93.8141 36.1261C94.0237 36.1882 94.2023 36.2814 94.3498 36.4056C94.4973 36.5221 94.5711 36.6657 94.5711 36.8365C94.5711 36.9607 94.5361 37.0694 94.4663 37.1626C94.3964 37.2558 94.2528 37.3024 94.0354 37.3024C93.8878 37.3024 93.7209 37.3024 93.5346 37.3024C93.3482 37.2946 93.1541 37.2907 92.9523 37.2907C92.7504 37.2907 92.5524 37.2985 92.3583 37.314C92.1797 37.3218 91.9662 37.3412 91.7177 37.3722C91.4771 37.4033 91.2208 37.4382 90.9491 37.4771C90.6851 37.5081 90.4367 37.5431 90.2037 37.5819C89.9708 37.6129 89.7728 37.6401 89.6098 37.6634C89.4622 37.6945 89.3264 37.7294 89.2021 37.7682C89.0857 37.7993 88.9731 37.8148 88.8644 37.8148ZM102.269 37.7682C102.549 37.5663 102.813 37.3489 103.061 37.116C103.317 36.8753 103.543 36.6424 103.737 36.4172C103.939 36.1843 104.09 35.9786 104.191 35.8C104.253 35.6758 104.265 35.5981 104.226 35.5671C104.195 35.5282 104.125 35.5088 104.016 35.5088C103.923 35.5088 103.741 35.5282 103.469 35.5671C103.205 35.6059 102.89 35.6602 102.526 35.7301C102.168 35.7922 101.796 35.8621 101.407 35.9397C101.027 36.0096 100.662 36.0834 100.313 36.161C99.9711 36.2309 99.6838 36.2969 99.4509 36.359C99.3034 36.3978 99.1753 36.4522 99.0666 36.5221C98.9656 36.5919 98.8724 36.6579 98.787 36.72C98.7016 36.7744 98.6007 36.8016 98.4842 36.8016C98.3445 36.8016 98.1853 36.7433 98.0067 36.6269C97.8282 36.5104 97.6651 36.3707 97.5176 36.2076C97.3778 36.0368 97.2769 35.8737 97.2148 35.7185C97.1682 35.5942 97.1372 35.4545 97.1216 35.2992C97.1139 35.1439 97.1177 34.9847 97.1333 34.8217L97.308 34.7751C97.471 34.9537 97.6069 35.0857 97.7156 35.1711C97.8243 35.2565 97.9718 35.2992 98.1581 35.2992C98.3367 35.2992 98.5774 35.2876 98.8802 35.2643C99.1908 35.241 99.5363 35.2138 99.9167 35.1827C100.297 35.1439 100.689 35.1051 101.093 35.0663C101.497 35.0197 101.881 34.977 102.246 34.9382C102.611 34.8993 102.933 34.8644 103.213 34.8333C103.5 34.7945 103.71 34.7635 103.842 34.7402C104.059 34.7091 104.226 34.6548 104.342 34.5771C104.467 34.4995 104.599 34.4607 104.738 34.4607C104.847 34.4607 104.987 34.5189 105.158 34.6354C105.336 34.7518 105.515 34.8955 105.693 35.0663C105.88 35.2293 106.031 35.4001 106.148 35.5787C106.272 35.7495 106.334 35.897 106.334 36.0213C106.334 36.1533 106.276 36.2542 106.159 36.3241C106.043 36.3939 105.911 36.4483 105.763 36.4871C105.623 36.5259 105.507 36.5725 105.414 36.6269C105.204 36.7433 104.944 36.8909 104.633 37.0694C104.323 37.2402 103.981 37.4188 103.609 37.6052C103.236 37.7915 102.852 37.974 102.456 38.1525L102.269 37.7682ZM97.5875 43.5331C98.0378 43.2226 98.4571 42.8693 98.8453 42.4733C99.2335 42.0696 99.5829 41.6542 99.8934 41.2272C100.204 40.8001 100.468 40.3886 100.685 39.9927C100.911 39.5967 101.081 39.2473 101.198 38.9445C101.314 38.6339 101.373 38.401 101.373 38.2457C101.373 38.0594 101.287 37.908 101.116 37.7915C100.945 37.6673 100.74 37.5547 100.499 37.4538L100.522 37.2791C100.654 37.248 100.786 37.2247 100.918 37.2092C101.05 37.1859 101.19 37.1781 101.338 37.1859C101.71 37.2014 102.029 37.2635 102.293 37.3722C102.564 37.4732 102.747 37.5663 102.84 37.6517C102.925 37.7139 102.984 37.7876 103.015 37.873C103.053 37.9507 103.05 38.0477 103.003 38.1642C102.692 38.9484 102.3 39.6899 101.827 40.3886C101.361 41.0796 100.794 41.7085 100.126 42.2753C99.4586 42.8421 98.6667 43.3274 97.7505 43.7311L97.5875 43.5331Z" fill="#4E4A46"/>
</svg>
