<svg width="46" height="39" viewBox="0 0 46 39" fill="none" xmlns="http://www.w3.org/2000/svg">
<path d="M0.75 38.1543H45.1188" stroke="white" stroke-width="1.5" stroke-linecap="round" stroke-linejoin="round"/>
<path d="M5.30066 38.1541L10.989 24.9526" stroke="white" stroke-width="1.5" stroke-linecap="round" stroke-linejoin="round"/>
<path d="M40.5682 38.1541L34.8799 24.9526" stroke="white" stroke-width="1.5" stroke-linecap="round" stroke-linejoin="round"/>
<path d="M22.9344 0.75C15.3121 0.75 9.85132 6.36064 9.85132 13.4014C9.85132 22.9725 19.1801 27.043 22.9344 34.8539C26.6887 27.043 36.0175 22.9725 36.0175 13.4014C36.0175 6.36064 30.5568 0.75 22.9344 0.75Z" stroke="white" stroke-width="1.5" stroke-linecap="round" stroke-linejoin="round"/>
<path d="M22.9344 17.5817C25.322 17.5817 27.2575 15.71 27.2575 13.4012C27.2575 11.0924 25.322 9.2207 22.9344 9.2207C20.5468 9.2207 18.6113 11.0924 18.6113 13.4012C18.6113 15.71 20.5468 17.5817 22.9344 17.5817Z" stroke="white" stroke-width="1.5" stroke-linecap="round" stroke-linejoin="round"/>
</svg>
