<svg width="46" height="39" viewBox="0 0 46 39" fill="none" xmlns="http://www.w3.org/2000/svg">
<path d="M8.70222 4.23926C7.38884 4.23926 6.07547 5.30543 6.07547 6.90469C6.07547 10.6363 8.04553 15.9671 13.299 22.3642C18.5525 28.7612 25.7761 33.0259 31.0296 34.6252C32.9996 35.1582 34.9697 34.0921 36.2831 31.9597L39.5665 27.4818C40.2232 26.6289 39.9605 25.5627 38.9098 25.0296L32.0803 22.1509C31.0296 21.7245 29.7162 22.0443 29.0595 22.7906L26.4328 25.5627C22.4926 23.6436 17.6332 19.6987 15.2691 16.5002L18.6839 14.3679C19.6032 13.8348 19.9972 12.7686 19.4719 11.9157L15.9258 6.3716C15.2691 5.51866 13.9557 5.30543 12.905 5.83852L8.70222 4.23926Z" stroke="white" stroke-width="2" stroke-linecap="round" stroke-linejoin="round"/>
</svg>
